<?xml version="1.0" standalone="no"?>
<!DOCTYPE svg PUBLIC "-//W3C//DTD SVG 20010904//EN"
 "http://www.w3.org/TR/2001/REC-SVG-20010904/DTD/svg10.dtd">
<svg version="1.0" xmlns="http://www.w3.org/2000/svg"
 width="600.000000pt" height="500.000000pt" viewBox="0 0 600.000000 500.000000"
 preserveAspectRatio="xMidYMid meet">

<g transform="translate(0.000000,500.000000) scale(0.100000,-0.100000)"
fill="#000000" stroke="none">
<path d="M0 2500 l0 -2500 3000 0 3000 0 0 2500 0 2500 -3000 0 -3000 0 0
-2500z m2910 1830 c40 -16 81 -30 90 -30 9 0 50 13 90 30 l72 30 75 -46 74
-47 85 17 c97 20 84 24 171 -58 l43 -40 89 3 89 3 55 -70 56 -70 86 -12 85
-12 42 -78 42 -77 83 -27 82 -27 27 -82 27 -83 77 -42 78 -42 12 -85 12 -86
70 -56 70 -55 -3 -89 -3 -89 40 -43 c82 -87 78 -74 58 -171 l-17 -85 47 -74
46 -75 -30 -72 c-17 -40 -30 -81 -30 -90 0 -9 13 -50 30 -90 l30 -72 -46 -75
-47 -74 17 -85 c20 -97 24 -84 -58 -171 l-40 -43 3 -89 3 -89 -70 -55 -70 -56
-12 -86 -12 -85 -78 -42 -77 -42 -27 -83 -27 -82 -82 -27 -83 -27 -42 -77 -42
-78 -85 -12 -86 -12 -56 -70 -55 -70 -89 3 -89 3 -43 -40 c-87 -82 -74 -78
-171 -58 l-85 17 -74 -47 -75 -46 -72 30 c-40 17 -81 30 -90 30 -9 0 -50 -13
-90 -30 l-72 -30 -75 46 -74 47 -85 -17 c-97 -20 -84 -24 -171 58 l-43 40 -89
-3 -89 -3 -55 70 -56 70 -86 12 -85 12 -42 78 -42 77 -83 27 -82 27 -27 82
-27 83 -77 42 -78 42 -12 85 -12 86 -70 56 -70 55 3 89 3 89 -40 43 c-82 87
-78 74 -58 171 l17 85 -47 74 -46 75 30 72 c17 40 30 81 30 90 0 9 -13 50 -30
90 l-30 72 46 75 47 74 -17 85 c-20 97 -24 84 58 171 l40 43 -3 89 -3 89 70
55 70 56 12 86 12 85 78 42 77 42 27 83 27 82 82 27 83 27 42 77 42 78 85 12
86 12 56 70 55 70 89 -3 89 -3 43 40 c87 82 74 78 171 58 l85 -17 73 46 c40
26 74 47 74 47 1 0 34 -13 74 -30z"/>
<path d="M2960 4217 c-3 -2 -48 -7 -100 -10 -308 -19 -626 -139 -890 -336 -96
-72 -269 -245 -341 -341 -186 -250 -297 -530 -335 -850 -8 -70 -8 -301 1 -360
46 -325 121 -532 278 -770 116 -176 298 -358 478 -478 196 -131 441 -227 669
-262 41 -6 89 -14 105 -17 39 -6 311 -6 350 0 17 3 64 11 105 17 586 90 1106
513 1319 1071 38 99 76 241 91 339 6 41 14 89 17 105 2 17 5 95 5 175 0 80 -3
159 -5 175 -3 17 -11 64 -17 105 -22 143 -70 300 -138 451 -128 284 -388 570
-677 744 -196 118 -459 206 -690 229 -105 10 -220 17 -225 13z m-649 -1254
c31 -27 39 -28 168 -33 115 -5 147 -3 205 13 62 17 80 18 175 8 99 -10 557 -7
590 5 8 2 66 7 130 10 110 6 118 5 145 -17 58 -45 66 -104 45 -329 -9 -102 -8
-127 5 -175 17 -57 19 -155 5 -215 -4 -19 -9 -57 -10 -85 -1 -27 -3 -58 -6
-67 -6 -24 -77 -43 -112 -30 -42 16 -91 22 -91 12 0 -6 -12 -10 -27 -10 l-28
1 24 13 c15 8 20 16 12 20 -6 4 -21 -2 -33 -14 -12 -11 -24 -17 -27 -13 -11
14 -31 13 -31 -2 0 -14 26 -21 94 -27 43 -4 46 -28 4 -28 -18 -1 -84 -2 -145
-3 -62 -1 -113 1 -113 6 0 4 8 7 18 8 9 0 27 13 39 28 l23 29 -25 4 c-14 3
-25 2 -25 -3 0 -11 -68 -29 -88 -22 -15 4 -15 3 -2 -6 8 -6 23 -11 33 -11 34
0 16 -17 -25 -25 -64 -11 -111 -10 -116 3 -5 16 -39 15 -45 0 -3 -7 -4 0 -4
17 2 29 0 30 -48 36 -27 3 -55 2 -61 -2 -6 -5 -14 -5 -18 -1 -13 13 -145 8
-151 -5 -3 -8 -25 -13 -61 -13 l-57 0 19 23 c18 21 17 21 -8 -2 -19 -17 -34
-22 -52 -17 -15 4 -27 1 -30 -7 -3 -6 -3 -2 0 10 4 18 2 22 -10 17 -8 -3 -14
-11 -12 -17 1 -7 1 -9 -1 -4 -3 4 -16 7 -29 7 -15 0 -24 6 -24 16 0 11 -5 14
-16 10 -9 -4 -23 -1 -30 5 -11 9 -18 8 -29 -1 -8 -6 -23 -9 -35 -5 -11 4 -20
2 -20 -4 0 -6 -11 -11 -25 -11 -26 0 -31 14 -16 39 5 8 19 12 35 9 20 -4 26
-1 26 13 0 14 7 19 25 19 14 0 25 -6 25 -12 0 -9 3 -8 10 2 8 12 10 12 16 -3
8 -22 40 -22 52 -1 6 12 18 15 35 12 20 -4 28 0 33 14 6 19 7 19 25 2 10 -9
19 -24 20 -33 0 -11 2 -12 6 -3 4 10 8 8 18 -5 12 -17 14 -16 21 12 13 48 9
131 -12 232 -3 15 -14 24 -36 28 -47 10 -75 40 -89 96 -7 27 -19 49 -26 49 -7
0 -13 6 -13 13 0 23 -103 120 -141 132 -11 4 -33 2 -47 -3 -15 -6 -71 -13
-124 -16 -84 -5 -100 -3 -119 13 l-23 18 36 55 c20 30 44 60 52 67 9 8 16 18
16 24 0 5 10 24 23 41 40 54 40 55 -3 49 -55 -8 -52 11 8 41 60 32 64 32 103
-1z m279 -793 c0 -5 -4 -10 -10 -10 -5 0 -10 5 -10 10 0 6 5 10 10 10 6 0 10
-4 10 -10z m1250 -80 c0 -5 11 -10 25 -10 16 0 25 -6 25 -16 0 -14 -7 -15 -37
-9 -21 4 -47 7 -58 6 -19 0 -18 1 4 20 26 21 41 24 41 9z m-780 -71 l0 -32
-46 7 c-26 3 -63 6 -83 6 -30 1 -33 2 -18 11 10 6 34 9 53 7 28 -3 34 -1 34
14 0 13 8 18 30 18 27 0 30 -3 30 -31z m-435 -226 c3 -16 26 -92 51 -170 38
-120 48 -143 65 -143 16 0 19 -7 19 -40 l0 -40 -125 0 -125 0 0 40 c0 36 2 40
26 40 16 0 24 5 22 13 -3 7 -27 13 -61 15 -46 2 -57 0 -57 -13 0 -8 9 -15 20
-15 17 0 20 -7 20 -40 l0 -40 -105 0 -105 0 0 40 c0 35 3 40 23 40 20 0 26 13
61 127 25 83 34 129 27 131 -6 2 -11 21 -11 43 l0 39 124 0 124 0 7 -27z m416
-70 l26 -98 23 98 24 97 123 0 123 0 0 -40 c0 -29 -4 -40 -15 -40 -13 0 -15
-21 -15 -130 0 -109 2 -130 15 -130 11 0 15 -11 15 -40 l0 -40 -100 0 -100 0
0 40 c0 29 4 40 15 40 12 0 15 15 14 78 l-1 77 -32 -115 -32 -115 -72 -3 -71
-3 -20 68 c-11 37 -26 91 -35 118 l-15 50 0 -77 c-1 -72 1 -78 19 -78 17 0 20
-7 20 -40 l0 -40 -90 0 -90 0 0 40 c0 33 3 40 20 40 19 0 20 7 20 130 0 109
-2 130 -15 130 -11 0 -15 11 -15 40 l0 40 118 0 117 0 26 -97z m549 57 c0 -33
-3 -40 -20 -40 -17 0 -20 -7 -20 -40 l0 -41 46 38 c31 26 40 39 30 41 -11 2
-16 15 -16 43 l0 39 105 0 105 0 0 -40 c0 -31 -4 -40 -17 -40 -10 -1 -37 -18
-59 -38 l-42 -38 60 -92 c33 -50 66 -92 74 -92 10 0 14 -12 14 -40 l0 -40
-120 0 -120 0 0 39 c0 26 5 41 14 43 11 2 9 12 -11 46 -24 41 -26 42 -44 26
-26 -24 -26 -74 1 -74 17 0 20 -7 20 -40 l0 -40 -105 0 -105 0 0 40 c0 29 4
40 15 40 13 0 15 21 15 130 0 109 -2 130 -15 130 -11 0 -15 11 -15 40 l0 40
105 0 105 0 0 -40z"/>
<path d="M2225 2950 l-20 -9 20 0 c11 0 27 4 35 9 13 9 13 10 0 9 -8 0 -24 -4
-35 -9z"/>
<path d="M3620 2950 c-13 -8 -12 -10 3 -10 9 0 17 -5 17 -10 0 -13 -52 -1 -62
13 -4 7 -43 6 -120 -2 -72 -8 -213 -11 -386 -9 -167 2 -265 0 -252 -6 32 -14
24 -23 -25 -24 -24 -1 -57 -7 -72 -14 -15 -6 -31 -11 -35 -10 -9 2 -11 -12 -8
-41 1 -10 -4 -25 -10 -33 -9 -10 -9 -14 -1 -14 6 0 11 -11 11 -25 0 -14 -5
-25 -11 -25 -8 0 -8 -4 -1 -12 14 -18 18 -60 7 -77 -5 -10 -4 -16 3 -19 7 -2
12 -10 12 -18 0 -8 4 -14 9 -14 5 0 23 -13 39 -30 17 -16 35 -30 40 -30 17 0
-11 73 -29 77 -12 4 -16 13 -14 31 2 15 4 33 4 40 1 7 6 10 11 7 6 -4 10 7 10
27 l0 33 -18 -30 c-11 -16 -26 -36 -34 -43 -14 -11 -16 -7 -16 38 -1 27 3 50
9 50 5 0 14 11 19 24 6 16 18 26 36 28 21 2 30 10 36 33 7 29 9 30 70 32 35 2
70 -2 78 -7 12 -8 11 -10 -8 -10 -13 0 -32 -5 -43 -11 -11 -6 -29 -12 -39 -14
-22 -4 -62 -42 -52 -49 4 -2 7 -35 6 -73 -1 -37 1 -56 3 -40 2 15 9 27 15 27
6 0 8 -9 5 -19 -3 -12 1 -22 9 -25 8 -3 14 -11 14 -19 0 -7 11 -23 25 -35 14
-12 25 -17 25 -12 0 17 28 11 39 -7 9 -16 12 -16 21 -3 6 10 10 11 10 3 0 -7
9 -13 20 -13 11 0 20 5 20 10 0 6 5 10 10 10 14 0 12 -27 -2 -33 -10 -4 -10
-6 0 -6 7 -1 15 6 18 14 4 8 12 15 20 15 8 0 14 7 14 15 0 12 4 13 25 3 14 -6
25 -14 25 -18 0 -4 19 -10 41 -13 23 -3 46 -11 50 -19 5 -8 9 -9 9 -2 0 6 18
14 40 18 26 4 40 11 40 21 0 8 9 23 20 32 11 10 20 30 20 44 0 15 6 30 13 32
7 3 5 6 -5 6 -13 1 -18 -7 -18 -25 0 -15 -5 -24 -12 -22 -6 2 -30 -15 -53 -39
-48 -49 -75 -56 -75 -18 0 16 6 25 16 25 21 0 74 59 67 76 -3 8 1 14 11 14 9
0 16 5 16 10 0 6 9 20 20 32 22 24 30 62 8 40 -18 -18 -28 -14 -25 9 1 13 -4
23 -13 24 -8 2 -28 5 -45 8 -16 3 -48 9 -70 12 -22 4 -47 9 -55 12 -8 3 -44 4
-79 3 -36 -1 -61 2 -57 8 3 5 36 10 73 11 37 2 90 4 118 5 27 1 66 -1 87 -4
27 -5 41 -3 49 6 18 21 66 18 72 -5 2 -11 0 -24 -6 -30 -6 -6 -8 -14 -4 -18 4
-4 13 -1 19 5 19 19 51 14 80 -13 15 -14 30 -25 34 -25 3 0 18 -8 32 -19 15
-10 46 -19 69 -19 46 -2 63 14 63 60 1 30 25 62 41 52 8 -4 10 -3 5 5 -4 6
-20 18 -37 26 -30 16 -41 39 -14 29 8 -4 15 -1 15 5 0 14 -40 14 -60 1z m-66
-26 c24 -9 19 -24 -6 -24 -34 0 -68 11 -68 21 0 10 50 12 74 3z m-100 -20 c25
-9 19 -24 -9 -24 -16 0 -25 6 -25 15 0 16 9 19 34 9z m-594 -101 c-1 -10 -7
-29 -14 -42 -11 -20 -14 -21 -19 -6 -10 24 3 65 19 65 8 0 14 -8 14 -17z m50
5 c0 -22 -24 -78 -33 -78 -5 0 -7 14 -3 31 3 17 6 38 6 45 0 8 7 14 15 14 8 0
15 -5 15 -12z m25 -76 c0 -31 -19 -28 -23 4 -3 18 0 25 10 22 7 -3 13 -14 13
-26z"/>
<path d="M3716 2916 c15 -19 30 -33 32 -31 7 7 -19 45 -39 56 -18 9 -17 5 7
-25z"/>
<path d="M2725 2935 c-5 -2 -29 -9 -52 -15 -24 -6 -43 -15 -43 -21 0 -6 5 -7
10 -4 6 3 10 0 10 -7 0 -10 2 -11 8 0 5 7 16 10 25 6 11 -4 17 -1 17 8 0 8 12
19 28 25 24 10 22 17 -3 8z"/>
<path d="M2360 2899 c0 -11 4 -18 10 -14 5 3 18 -3 29 -14 10 -10 28 -22 40
-26 12 -3 21 -11 21 -16 0 -5 7 -9 15 -9 8 0 15 -5 15 -11 0 -7 -10 -9 -25 -7
-13 3 -22 1 -19 -3 3 -5 11 -9 18 -9 7 0 18 -17 24 -37 l11 -38 -5 43 c-2 23
-2 42 2 42 11 0 31 -26 39 -50 l8 -25 10 29 c7 21 12 25 18 15 7 -11 9 -10 9
4 0 9 -5 17 -11 17 -7 0 -9 10 -7 24 4 20 -1 26 -35 37 -21 7 -41 19 -44 26
-3 7 -15 13 -27 13 -11 1 -32 7 -46 15 -35 20 -50 18 -50 -6z"/>
<path d="M2260 2898 c0 -7 5 -20 10 -28 8 -12 10 -9 10 13 0 15 -4 27 -10 27
-5 0 -10 -6 -10 -12z"/>
<path d="M3754 2755 c0 -66 1 -92 3 -57 2 34 2 88 0 120 -2 31 -3 3 -3 -63z"/>
<path d="M2351 2823 c12 -15 12 -16 -3 -10 -13 4 -18 1 -18 -11 0 -10 -8 -29
-17 -42 -18 -26 -27 -54 -15 -48 4 2 19 10 35 17 18 9 27 22 27 37 0 16 4 22
14 18 11 -4 13 0 9 18 -6 23 -20 38 -37 38 -5 0 -2 -8 5 -17z"/>
<path d="M2285 2820 c-12 -4 -27 -15 -34 -24 -7 -9 -19 -16 -27 -16 -7 0 -16
-4 -19 -10 -4 -6 3 -6 21 0 36 14 44 3 15 -21 -27 -22 -25 -30 5 -19 11 5 29
25 39 47 10 21 23 41 29 45 15 10 -4 9 -29 -2z"/>
<path d="M3407 2784 c-4 -4 -7 -22 -7 -40 0 -18 -4 -36 -10 -39 -5 -3 -10 -17
-10 -30 0 -19 4 -23 16 -18 10 4 22 -1 30 -12 12 -17 15 -17 38 -1 33 21 35
21 31 -11 -2 -16 -4 -40 -4 -55 -1 -28 -25 -40 -33 -16 -2 6 -26 17 -52 23
-45 12 -49 11 -53 -6 -3 -11 -12 -19 -19 -19 -8 0 -14 -6 -14 -14 0 -7 -10
-25 -21 -40 -12 -15 -18 -30 -15 -33 3 -4 12 1 19 9 6 9 32 33 56 53 43 35 44
36 58 15 8 -12 21 -19 29 -16 8 3 14 1 14 -3 0 -5 8 -7 18 -4 12 3 22 -4 30
-21 6 -14 15 -26 20 -26 14 0 43 36 35 43 -3 4 2 16 12 27 10 11 15 20 11 20
-3 0 0 16 8 35 13 31 6 50 -9 25 -9 -15 -35 -12 -35 4 0 8 13 29 30 47 21 23
26 35 18 40 -7 5 -18 4 -24 -2 -8 -6 -19 -3 -35 10 -20 16 -25 17 -37 4 -13
-12 -20 -10 -52 22 -20 19 -39 32 -43 29z"/>
<path d="M3702 2692 c-23 -72 -32 -117 -32 -168 0 -38 -4 -75 -9 -83 -6 -9 -4
-28 5 -52 15 -35 14 -41 -15 -124 -17 -48 -31 -100 -31 -116 0 -17 -6 -32 -15
-35 -8 -4 -15 -11 -15 -17 0 -6 10 -1 23 11 13 12 30 22 38 22 10 -1 9 -5 -5
-15 -18 -14 -17 -15 23 -15 37 0 42 -2 36 -19 -5 -16 -2 -18 15 -14 27 7 34
21 20 38 -35 42 -50 246 -25 343 13 50 33 342 24 342 -3 0 -19 -44 -37 -98z"/>
<path d="M2143 2758 c-24 -31 -24 -38 -1 -38 13 0 29 10 37 23 10 17 11 19 0
10 -18 -18 -32 -16 -25 2 7 18 2 19 -11 3z"/>
<path d="M2615 2709 c-11 -17 1 -21 15 -4 8 9 8 15 2 15 -6 0 -14 -5 -17 -11z"/>
<path d="M2140 2680 c0 -5 4 -10 9 -10 6 0 13 5 16 10 3 6 -1 10 -9 10 -9 0
-16 -4 -16 -10z"/>
<path d="M2495 2630 c10 -11 20 -20 22 -20 2 0 -2 9 -9 20 -7 11 -17 20 -22
20 -5 0 -1 -9 9 -20z"/>
<path d="M3078 2578 c-7 -17 17 -46 29 -34 3 3 1 6 -5 6 -6 0 -12 10 -14 23
-3 18 -4 19 -10 5z"/>
<path d="M3630 2552 c-13 -31 -14 -41 -3 -62 13 -25 13 -25 14 10 1 32 2 33 9
10 7 -23 8 -22 8 10 0 19 -2 43 -6 52 -6 13 -10 9 -22 -20z"/>
<path d="M2540 2561 c0 -6 4 -13 10 -16 6 -3 7 1 4 9 -7 18 -14 21 -14 7z"/>
<path d="M2670 2522 c0 -15 4 -22 8 -16 4 6 15 13 25 17 13 5 17 1 17 -18 0
-14 4 -25 8 -25 12 0 8 38 -4 50 -6 6 -20 12 -32 15 -18 3 -22 -1 -22 -23z"/>
<path d="M3736 2480 c-12 -75 -11 -104 4 -139 19 -47 33 -38 26 17 -4 26 -10
76 -14 112 l-7 65 -9 -55z"/>
<path d="M3370 2488 c-23 -38 -24 -50 -8 -66 16 -16 28 -15 28 3 0 8 5 15 10
15 14 0 13 -13 -2 -28 -9 -9 -9 -15 -1 -23 9 -9 16 -2 28 26 9 23 12 41 6 44
-5 4 -13 19 -16 34 -9 36 -21 34 -45 -5z"/>
<path d="M2621 2500 c-1 -14 31 -50 44 -50 9 0 5 39 -5 45 -5 3 -10 1 -10 -4
0 -18 -18 -12 -23 7 -4 13 -5 13 -6 2z"/>
<path d="M3446 2472 c16 -70 25 -102 31 -102 3 0 3 15 0 34 -3 19 -1 36 3 38
16 5 -1 46 -21 51 -16 4 -18 1 -13 -21z"/>
<path d="M2606 2442 c-4 -6 7 -18 24 -27 17 -9 30 -11 30 -5 0 5 -7 10 -15 10
-7 0 -18 7 -23 16 -6 11 -12 13 -16 6z"/>
<path d="M2718 2395 c-3 -14 -1 -28 3 -31 5 -3 9 -16 9 -29 0 -13 3 -26 8 -28
4 -3 7 9 7 26 0 18 4 44 8 60 6 23 4 27 -12 27 -12 0 -20 -9 -23 -25z"/>
<path d="M3561 2377 c-1 -43 -3 -48 -20 -42 -14 4 -21 0 -26 -16 -4 -11 -2
-26 3 -31 8 -8 9 -4 5 11 -3 12 -1 21 6 21 6 0 11 -7 11 -15 0 -12 4 -11 19 4
17 17 18 27 11 68 l-8 48 -1 -48z"/>
<path d="M2890 2283 c3 -71 9 -134 13 -140 11 -18 32 -16 69 7 43 26 56 25 32
-2 l-19 -21 28 18 c15 10 31 15 35 11 3 -4 0 -11 -8 -16 -12 -8 -10 -10 8 -10
13 0 22 -6 22 -15 0 -8 4 -15 9 -15 5 0 7 8 4 19 -4 15 1 19 21 19 15 0 29 -4
32 -9 10 -17 24 -9 24 14 0 16 9 26 32 35 35 13 48 8 30 -10 -13 -13 -16 -49
-4 -47 22 4 34 -3 29 -16 -4 -8 -2 -17 3 -20 6 -4 10 4 10 16 0 22 0 22 23 3
l22 -19 -21 25 c-38 45 -38 50 -2 44 18 -4 38 -12 43 -19 6 -7 20 -15 32 -19
12 -4 23 -15 25 -24 4 -17 11 -7 60 92 11 21 22 64 24 95 4 44 2 51 -6 33 -11
-27 -33 -25 -38 4 -2 10 -25 34 -50 53 l-46 34 -83 -27 c-46 -15 -88 -24 -94
-20 -6 4 -48 10 -93 15 -45 5 -98 15 -119 24 -20 8 -40 15 -44 15 -4 0 -6 -57
-3 -127z"/>
<path d="M3641 2395 c0 -11 4 -27 9 -35 9 -13 10 -13 9 0 0 8 -4 24 -9 35 l-9
20 0 -20z"/>
<path d="M2787 2316 c-9 -62 -7 -154 3 -186 l8 -25 1 28 c1 17 7 27 16 27 18
0 21 70 4 101 -5 11 -14 39 -18 62 l-7 42 -7 -49z"/>
<path d="M2848 2336 c-16 -12 -16 -14 -1 -35 10 -16 14 -35 10 -62 -3 -22 -1
-39 4 -39 6 0 9 33 7 75 -1 41 -2 75 -2 75 -1 0 -9 -6 -18 -14z"/>
<path d="M3481 2334 c0 -11 3 -14 6 -6 3 7 2 16 -1 19 -3 4 -6 -2 -5 -13z"/>
<path d="M2762 2280 c0 -19 2 -27 5 -17 2 9 2 25 0 35 -3 9 -5 1 -5 -18z"/>
<path d="M3720 2278 c0 -15 5 -30 10 -33 13 -8 13 25 0 45 -8 12 -10 9 -10
-12z"/>
<path d="M3613 2244 c-1 -41 0 -41 15 4 8 25 8 32 -2 32 -7 0 -12 -14 -13 -36z"/>
<path d="M3481 2253 c0 -12 -4 -30 -7 -40 -5 -17 -5 -17 6 0 6 10 9 28 7 40
-4 22 -4 22 -6 0z"/>
<path d="M3746 2233 c-8 -53 -5 -85 4 -43 5 19 11 45 15 58 4 12 3 22 -3 22
-5 0 -12 -17 -16 -37z"/>
<path d="M3531 2201 c-29 -55 -31 -63 -17 -77 13 -12 17 -13 20 -2 3 7 12 37
21 66 24 77 14 83 -24 13z"/>
<path d="M3575 2204 c-7 -48 -4 -57 20 -60 11 -2 15 7 15 29 0 25 -3 29 -11
17 -8 -11 -9 -6 -7 23 6 53 -8 46 -17 -9z"/>
<path d="M2730 2190 c0 -22 2 -40 4 -40 2 0 11 -3 20 -6 12 -5 16 0 16 21 0
30 -16 65 -30 65 -6 0 -10 -18 -10 -40z"/>
<path d="M3447 2155 c-16 -34 -14 -45 10 -45 21 0 36 49 20 65 -12 11 -17 8
-30 -20z"/>
<path d="M2850 2156 c0 -2 7 -6 15 -10 8 -3 15 -1 15 4 0 6 -7 10 -15 10 -8 0
-15 -2 -15 -4z"/>
<path d="M3547 2116 c-4 -10 -1 -19 9 -23 21 -8 26 1 11 22 -13 16 -14 16 -20
1z"/>
<path d="M2710 2100 c0 -5 5 -10 10 -10 6 0 10 5 10 10 0 6 -4 10 -10 10 -5 0
-10 -4 -10 -10z"/>
<path d="M2661 2084 c0 -11 3 -14 6 -6 3 7 2 16 -1 19 -3 4 -6 -2 -5 -13z"/>
<path d="M2840 2096 c0 -2 7 -6 15 -10 8 -3 15 -1 15 4 0 6 -7 10 -15 10 -8 0
-15 -2 -15 -4z"/>
<path d="M3407 2086 c-3 -8 -2 -18 4 -22 16 -9 22 2 11 21 -8 15 -10 16 -15 1z"/>
<path d="M2770 2070 c0 -5 5 -10 11 -10 5 0 7 5 4 10 -3 6 -8 10 -11 10 -2 0
-4 -4 -4 -10z"/>
<path d="M3150 2033 c0 -21 3 -24 9 -14 5 8 7 20 4 28 -8 21 -13 15 -13 -14z"/>
<path d="M3370 2039 c-11 -19 -10 -20 10 -9 11 6 18 15 15 21 -9 13 -13 11
-25 -12z"/>
<path d="M2486 1653 c-4 -16 -9 -36 -12 -45 -4 -15 1 -18 26 -18 33 0 34 1 9
68 -11 29 -15 28 -23 -5z"/>
</g>
</svg>
