<?xml version="1.0" standalone="no"?>
<!DOCTYPE svg PUBLIC "-//W3C//DTD SVG 20010904//EN"
 "http://www.w3.org/TR/2001/REC-SVG-20010904/DTD/svg10.dtd">
<svg version="1.0" xmlns="http://www.w3.org/2000/svg"
 width="600.000000pt" height="500.000000pt" viewBox="0 0 600.000000 500.000000"
 preserveAspectRatio="xMidYMid meet">
<metadata>
Created by potrace 1.13, written by Peter Selinger 2001-2015
</metadata>
<g transform="translate(0.000000,500.000000) scale(0.100000,-0.100000)"
fill="#000000" stroke="none">
<path d="M3625 3480 c3 -5 12 -10 19 -10 7 0 21 -9 31 -20 10 -11 13 -20 8
-20 -12 0 -23 -46 -25 -97 0 -18 -5 -33 -10 -33 -5 0 -6 -5 -2 -12 4 -6 3 -8
-4 -4 -12 7 -8 56 8 87 8 14 9 24 2 31 -7 7 -13 -1 -17 -26 -4 -21 -13 -36
-21 -36 -8 0 -14 -5 -14 -11 0 -7 -9 -9 -22 -6 -12 3 -29 2 -39 -4 -15 -8 -17
-6 -12 7 4 11 3 15 -5 10 -6 -4 -16 3 -23 15 -9 17 -13 19 -20 8 -7 -11 -11
-10 -23 6 -9 11 -16 23 -16 27 0 4 -9 9 -19 13 -25 8 -61 -14 -61 -37 0 -10
-6 -18 -13 -18 -14 0 -41 -39 -33 -48 10 -9 -33 -34 -47 -26 -9 5 -9 4 -1 -5
9 -10 4 -20 -17 -44 -16 -17 -29 -36 -29 -41 0 -6 10 4 23 21 12 16 25 31 30
31 14 2 39 19 38 25 -2 11 23 47 31 47 5 0 8 -12 8 -27 0 -19 3 -24 9 -15 4 7
6 24 3 38 -6 31 22 64 49 57 10 -3 19 -12 19 -19 0 -8 8 -14 18 -14 14 0 15
-2 2 -10 -10 -7 -11 -10 -2 -10 7 0 15 7 18 15 5 12 12 10 37 -11 27 -23 32
-24 42 -10 10 13 13 13 26 -2 16 -20 22 -55 7 -46 -5 3 -19 -4 -30 -15 l-19
-22 25 7 c23 5 26 3 26 -20 0 -14 -5 -26 -11 -26 -5 0 -7 -5 -4 -10 8 -13 -33
-102 -52 -113 -7 -5 -11 -12 -8 -18 4 -5 4 -9 1 -9 -3 0 -14 17 -25 38 -13 26
-26 38 -40 38 -12 0 -20 -5 -18 -11 2 -5 10 -10 18 -10 27 0 40 -80 18 -102
-9 -9 -7 -11 7 -9 10 2 13 1 7 -1 -16 -5 -17 -20 -2 -29 6 -3 15 0 20 7 8 11
12 10 25 -6 14 -19 15 -17 9 28 -3 31 -1 55 7 66 11 15 13 7 13 -55 1 -51 -3
-75 -12 -78 -7 -3 -13 -13 -13 -21 0 -9 -4 -14 -9 -11 -12 8 -41 -4 -41 -16 0
-6 9 -8 20 -5 11 3 20 1 20 -4 0 -5 -9 -9 -20 -9 -15 0 -20 -7 -20 -25 0 -28
15 -34 24 -9 4 10 2 13 -7 8 -6 -4 -1 4 13 18 14 13 30 33 36 44 10 17 11 15
8 -11 -2 -16 -1 -22 2 -12 5 15 8 16 22 5 13 -11 14 -11 8 0 -5 8 -1 22 11 34
18 21 18 21 -4 9 -13 -6 -23 -8 -23 -2 0 5 8 12 17 15 12 5 14 9 5 18 -15 15
-15 39 0 36 6 -2 15 8 19 22 4 14 7 19 8 11 1 -8 4 -11 7 -8 4 4 1 14 -6 22
-12 15 -15 14 -27 -7 -8 -13 -12 -16 -9 -7 2 9 1 20 -3 25 -13 14 -23 67 -12
60 11 -7 33 52 24 68 -3 6 -3 8 1 4 15 -13 46 28 67 89 11 34 18 66 16 70 -3
5 1 13 8 20 11 10 15 10 18 0 3 -7 6 13 6 43 0 44 -4 60 -24 83 -22 25 -64 40
-50 17z"/>
<path d="M2447 3373 c-3 -3 -4 -10 -1 -17 8 -20 -65 -88 -101 -94 -11 -2 -25
-7 -30 -10 -6 -4 -1 2 12 14 l23 20 -24 0 c-14 0 -23 -3 -21 -6 2 -4 -1 -7 -8
-7 -7 0 -19 -2 -27 -4 -8 -2 -14 2 -12 9 1 6 -3 12 -9 12 -6 0 -8 -8 -4 -19 3
-11 0 -23 -7 -27 -6 -4 -14 -2 -16 5 -3 8 -8 9 -16 2 -9 -8 -12 -3 -10 19 1
17 -2 28 -7 25 -4 -3 -5 -13 -2 -22 4 -11 3 -14 -5 -9 -16 10 -15 -9 1 -22 22
-18 186 -13 228 8 21 10 39 15 41 11 2 -3 29 -28 61 -55 33 -27 61 -56 65 -65
3 -9 10 -19 16 -23 6 -4 15 -22 21 -39 6 -18 17 -35 25 -37 10 -4 12 8 7 54
-5 55 -5 57 8 29 18 -41 19 -13 0 32 -21 49 -18 55 5 13 11 -19 19 -48 20 -63
0 -23 2 -26 14 -15 8 7 10 14 6 16 -4 2 -6 11 -3 22 6 21 35 19 59 -4 8 -9 21
-16 29 -16 17 0 27 -28 19 -53 -4 -13 -2 -17 5 -13 7 4 11 -1 11 -13 0 -12 -5
-21 -10 -21 -6 0 -9 -15 -8 -32 2 -45 11 -58 19 -28 6 23 7 22 8 -8 1 -22 5
-31 12 -26 8 4 9 0 4 -15 -5 -16 -3 -20 10 -15 14 6 14 9 0 30 -19 30 -19 38
1 30 14 -5 15 -4 4 9 -9 11 -9 15 -1 15 7 0 10 4 6 9 -3 5 -1 12 4 15 5 4 12
2 15 -3 4 -5 2 -12 -4 -16 -6 -4 -7 -12 -3 -18 5 -7 14 -28 20 -47 12 -33 12
-31 9 33 -2 37 -1 67 3 67 3 -1 31 -9 61 -20 30 -11 75 -20 100 -21 25 0 56
-4 70 -8 17 -5 49 1 101 19 l76 26 40 -35 c22 -20 43 -44 46 -53 8 -22 27 -24
27 -3 0 31 20 14 21 -17 0 -18 3 -27 6 -20 2 6 9 10 14 6 5 -3 9 4 9 16 0 12
-4 19 -9 16 -5 -3 -12 6 -15 20 -7 28 -28 28 -32 0 -4 -27 -11 -29 -17 -6 -3
11 -1 20 4 20 5 0 9 7 9 16 0 8 5 12 10 9 6 -3 10 -1 10 4 0 6 -4 11 -9 11 -4
0 -6 12 -3 26 3 18 1 25 -6 20 -6 -4 -9 -13 -5 -21 3 -8 0 -15 -6 -15 -6 0
-11 -7 -11 -15 0 -22 -13 -19 -45 10 -21 21 -26 31 -20 53 13 55 65 80 65 31
0 -10 5 -19 10 -19 15 0 0 53 -19 67 -13 9 -21 7 -39 -10 -13 -12 -28 -33 -35
-47 -7 -13 -21 -26 -32 -28 -11 -2 -26 -9 -32 -14 -16 -13 -95 -19 -87 -7 3 5
0 9 -5 9 -6 0 -2 9 9 20 11 11 20 25 20 30 0 6 7 10 16 10 9 0 12 5 8 12 -5 8
-14 3 -28 -15 -12 -15 -27 -27 -34 -27 -7 0 -12 -4 -12 -10 0 -5 -8 -10 -17
-10 -15 0 -16 2 -3 10 8 5 13 10 10 11 -3 0 -12 2 -20 4 -49 12 -60 13 -65 5
-8 -13 -65 10 -65 26 0 8 -7 14 -16 14 -8 0 -13 -4 -10 -9 5 -8 -15 -8 -34 -1
-3 1 -8 2 -12 1 -5 0 -8 6 -8 15 0 8 -4 12 -10 9 -5 -3 -10 1 -10 9 0 9 -5 15
-12 14 -6 -2 -14 5 -16 16 -2 10 0 16 5 13 5 -3 10 4 10 15 2 22 -20 51 -31
41 -3 -4 -6 0 -7 8 -2 40 -12 74 -22 81 -8 5 -8 13 0 31 10 22 9 24 -12 19
-14 -2 -26 -13 -29 -28 -4 -14 -10 -23 -14 -20 -4 2 -9 -6 -10 -19 -1 -18 2
-23 13 -19 8 4 13 10 10 14 -4 7 17 20 31 20 2 0 4 -19 4 -41 0 -33 -3 -39
-13 -31 -10 9 -13 6 -13 -13 0 -14 5 -25 12 -25 12 0 24 -28 30 -72 3 -22 1
-26 -14 -21 -9 4 -27 17 -39 30 -13 13 -23 21 -23 17 0 -4 -6 0 -13 11 -8 10
-18 15 -24 12 -6 -4 -8 3 -5 18 2 14 8 25 13 25 5 0 9 5 9 11 0 20 -24 3 -31
-22 -7 -23 -7 -23 -8 -2 -1 27 -19 40 -27 19 -3 -9 -10 -16 -14 -16 -10 0 18
88 33 108 8 10 7 16 -4 22 -9 7 -15 5 -17 -5 -2 -8 -7 -15 -12 -15 -5 0 -6 -8
-3 -17 5 -12 2 -15 -10 -10 -22 8 -32 -10 -16 -29 6 -8 9 -17 6 -20 -3 -3 -11
4 -18 17 -10 19 -13 20 -23 8 -12 -15 -41 -25 -32 -11 3 5 -3 17 -14 27 -21
19 -28 41 -9 29 7 -4 10 -1 7 7 -3 8 -14 15 -26 17 -12 2 -22 7 -22 12 0 10
-26 21 -33 13z"/>
</g>
</svg>
