<?xml version="1.0" standalone="no"?>
<!DOCTYPE svg PUBLIC "-//W3C//DTD SVG 20010904//EN"
 "http://www.w3.org/TR/2001/REC-SVG-20010904/DTD/svg10.dtd">
<svg version="1.0" xmlns="http://www.w3.org/2000/svg"
 width="600.000000pt" height="500.000000pt" viewBox="0 0 600.000000 500.000000"
 preserveAspectRatio="xMidYMid meet">
<metadata>
Created by potrace 1.13, written by Peter Selinger 2001-2015
</metadata>
<g transform="translate(0.000000,500.000000) scale(0.100000,-0.100000)"
fill="#000000" stroke="none">
<path d="M2757 4304 l-67 -44 -86 19 -87 18 -65 -59 -65 -59 -89 2 -88 2 -51
-66 c-54 -70 -51 -69 -169 -85 l-54 -7 -46 -79 -45 -79 -81 -24 -81 -25 -27
-84 -27 -84 -77 -43 c-84 -47 -77 -34 -96 -169 -7 -44 -12 -51 -77 -100 l-70
-53 7 -85 6 -86 -61 -67 c-33 -37 -61 -72 -61 -77 0 -6 -29 -10 -65 -10 l-65
0 0 -450 0 -450 70 0 c56 0 70 -3 70 -15 0 -12 -16 -15 -80 -15 l-80 0 0 315
0 315 -255 0 c-211 0 -255 -2 -248 -13 4 -8 63 -88 130 -179 68 -91 123 -169
123 -172 0 -3 -59 -85 -130 -181 -72 -97 -130 -178 -130 -180 0 -3 166 -5 370
-5 l369 0 22 -22 c19 -21 20 -30 14 -108 l-6 -85 70 -53 c65 -49 70 -56 77
-100 19 -135 12 -123 96 -170 l77 -44 27 -83 27 -83 81 -25 81 -24 45 -79 c50
-86 38 -79 172 -98 44 -7 51 -12 100 -77 l53 -70 85 7 86 6 66 -60 66 -60 84
18 83 19 73 -45 c40 -24 76 -44 80 -44 4 0 42 14 85 31 l77 31 80 -32 c43 -17
83 -30 87 -28 4 1 40 22 78 45 l70 41 83 -18 84 -18 66 60 66 60 86 -6 85 -7
53 70 c49 65 56 70 100 77 134 19 122 12 172 98 l45 79 81 25 81 25 25 81 25
81 79 45 c86 50 79 38 98 172 7 44 12 51 77 100 l70 53 -6 85 c-9 135 -43 124
402 130 l375 5 -131 178 c-72 97 -131 180 -131 183 0 4 55 81 123 172 67 91
126 171 130 179 7 11 -37 13 -248 13 l-255 0 0 -315 0 -315 -80 0 c-64 0 -80
3 -80 15 0 12 14 15 70 15 l70 0 0 450 0 450 -65 0 c-36 0 -65 4 -65 10 0 5
-28 40 -61 77 l-61 67 6 86 7 85 -70 53 c-65 49 -70 56 -77 100 -19 134 -13
123 -89 165 -39 21 -75 43 -81 50 -6 7 -21 46 -34 88 l-23 77 -81 25 -81 24
-45 79 -46 79 -54 7 c-118 16 -115 15 -170 85 l-51 67 -88 -3 -87 -3 -66 60
-66 60 -86 -19 -86 -19 -70 45 c-39 25 -74 45 -78 45 -4 0 -42 -14 -84 -31
l-78 -31 -77 31 c-43 17 -82 31 -88 30 -5 0 -40 -20 -78 -45z m585 -123 c225
-49 476 -159 658 -288 122 -87 307 -272 392 -393 102 -144 223 -391 252 -512
l6 -28 -1650 0 -1650 0 6 28 c14 58 77 211 130 311 80 154 174 281 304 411
259 259 585 426 946 485 134 22 478 14 606 -14z m-787 -1458 c3 -16 26 -92 51
-170 38 -120 48 -143 65 -143 16 0 19 -7 19 -40 l0 -40 -125 0 -125 0 0 40 c0
38 2 40 31 40 20 0 29 4 27 13 -3 7 -28 13 -66 15 -51 2 -62 0 -62 -13 0 -8 9
-15 20 -15 17 0 20 -7 20 -40 l0 -40 -100 0 -100 0 0 40 c0 35 3 40 23 40 20
0 26 13 61 127 25 83 34 129 27 131 -6 2 -11 21 -11 43 l0 39 119 0 119 0 7
-27z m401 -30 c9 -32 22 -78 29 -103 l12 -45 13 45 c6 25 19 71 27 103 l16 57
119 0 118 0 0 -40 c0 -29 -4 -40 -15 -40 -13 0 -15 -21 -15 -130 0 -109 2
-130 15 -130 11 0 15 -11 15 -40 l0 -40 -100 0 -100 0 0 40 c0 29 4 40 15 40
12 0 15 16 15 82 0 45 -2 79 -4 77 -2 -2 -16 -49 -30 -104 -15 -55 -29 -108
-32 -117 -4 -15 -17 -18 -72 -18 l-67 0 -34 125 c-19 69 -35 125 -37 125 -2 0
-4 -38 -4 -85 0 -78 2 -85 20 -85 17 0 20 -7 20 -40 l0 -40 -85 0 -85 0 0 40
c0 29 4 40 15 40 13 0 15 21 15 130 0 109 -2 130 -15 130 -11 0 -15 11 -15 40
l0 40 115 0 114 0 17 -57z m554 17 c0 -29 -4 -40 -15 -40 -11 0 -15 -12 -15
-46 l0 -45 50 43 c42 36 47 44 30 46 -16 3 -20 11 -20 43 l0 39 105 0 105 0 0
-40 c0 -32 -4 -40 -19 -40 -10 0 -38 -17 -61 -38 l-42 -37 58 -92 c37 -57 66
-92 77 -92 13 -1 17 -10 17 -41 l0 -40 -120 0 -120 0 0 40 c0 34 3 40 21 40
19 0 19 1 4 28 -36 59 -42 64 -64 52 -26 -13 -31 -80 -6 -80 11 0 15 -11 15
-40 l0 -40 -95 0 -95 0 0 40 c0 29 4 40 15 40 13 0 15 21 15 130 0 109 -2 130
-15 130 -11 0 -15 11 -15 40 l0 40 95 0 95 0 0 -40z m1135 -687 c-21 -114
-145 -371 -253 -523 -85 -121 -270 -306 -392 -393 -115 -81 -341 -196 -468
-237 -199 -64 -274 -74 -532 -74 -258 0 -333 10 -532 74 -127 41 -353 156
-468 237 -122 87 -307 272 -392 393 -108 152 -232 409 -253 523 l-7 37 1652 0
1652 0 -7 -37z"/>
</g>
</svg>
